<svg width="900" height="260" viewBox="0 0 900 260" fill="none" xmlns="http://www.w3.org/2000/svg">
  <defs>
    <linearGradient id="bgGradient" x1="0" y1="0" x2="1" y2="1">
      <stop offset="0%" stop-color="#FF7A18"/>
      <stop offset="100%" stop-color="#FFB347"/>
    </linearGradient>

    <linearGradient id="panGradient" x1="0" y1="0" x2="1" y2="1">
      <stop offset="0%" stop-color="#2B2D42"/>
      <stop offset="100%" stop-color="#1A1B2E"/>
    </linearGradient>
  </defs>

  <rect width="900" height="260" rx="40" fill="#FFFFFF"/>

  <g transform="translate(40 40)">
    <circle cx="90" cy="90" r="82" fill="url(#bgGradient)"/>

    <ellipse cx="92" cy="105" rx="48" ry="18" fill="url(#panGradient)"/>

    <rect x="132" y="98" width="36" height="10" rx="5" fill="#2B2D42"/>

    <path d="M72 72C66 58 74 48 84 42" stroke="#FFFFFF" stroke-width="7" stroke-linecap="round"/>
    <path d="M94 66C88 52 96 42 106 36" stroke="#FFFFFF" stroke-width="7" stroke-linecap="round"/>
    <path d="M116 72C110 58 118 48 128 42" stroke="#FFFFFF" stroke-width="7" stroke-linecap="round"/>

    <circle cx="70" cy="103" r="6" fill="#6BCB77"/>
    <circle cx="92" cy="97" r="7" fill="#FFD93D"/>
    <circle cx="114" cy="104" r="6" fill="#FF6B6B"/>
  </g>

  <g transform="translate(240 0)">
    <text x="0" y="120"
      font-family="Poppins, Arial, sans-serif"
      font-size="72"
      font-weight="800"
      fill="#2B2D42">
      What<tspan fill="#FF7A18">2</tspan>Cook
    </text>

    <text x="4" y="165"
      font-family="Poppins, Arial, sans-serif"
      font-size="28"
      font-weight="500"
      letter-spacing="2"
      fill="#6B7280">
      DESCUBRE RECETAS CON LO QUE TIENES EN CASA
    </text>
  </g>
</svg>
